<?xml version="1.0" encoding="UTF-8"?>
<!DOCTYPE svg PUBLIC "-//W3C//DTD SVG 1.1//EN" "http://www.w3.org/Graphics/SVG/1.1/DTD/svg11.dtd">
<!-- Creator: CorelDRAW X7 -->
<svg xmlns="http://www.w3.org/2000/svg" xml:space="preserve" width="50mm" height="50mm" version="1.1" style="shape-rendering:geometricPrecision; text-rendering:geometricPrecision; image-rendering:optimizeQuality; fill-rule:evenodd; clip-rule:evenodd"
viewBox="0 0 5000 5000"
 xmlns:xlink="http://www.w3.org/1999/xlink">
 <defs>
  <style type="text/css">
   <![CDATA[
    .fil0 {fill:white}
   ]]>
  </style>
 </defs>
 <g id="Слой_x0020_1">
  <metadata id="CorelCorpID_0Corel-Layer"/>
  <path class="fil0" d="M2500 177c236,0 446,364 578,928 492,-305 898,-415 1065,-248 167,167 57,573 -248,1065 564,132 928,342 928,578 0,236 -364,446 -928,578 305,492 415,898 248,1065 -167,167 -573,57 -1065,-248 -132,564 -342,928 -578,928 -236,0 -446,-364 -578,-928 -492,305 -898,415 -1065,248 -167,-167 -57,-573 248,-1065 -564,-132 -928,-342 -928,-578 0,-236 364,-446 928,-578 -305,-492 -415,-898 -248,-1065 167,-167 573,-57 1065,248 132,-564 342,-928 578,-928zm598 1020c40,187 71,393 92,613 220,21 426,52 613,92 238,-407 317,-739 175,-880 -141,-142 -473,-63 -880,175zm-1196 2606c-40,-187 -71,-393 -92,-613 -220,-21 -426,-52 -613,-92 -238,407 -317,739 -175,880 141,142 473,63 880,-175zm-746 -805c104,-160 227,-327 368,-498 -141,-171 -264,-338 -368,-498 -457,119 -747,298 -747,498 0,200 290,379 747,498zm417 -557c67,-79 137,-159 210,-238 5,-108 11,-213 20,-316 -202,22 -390,54 -558,93 91,147 201,302 328,461zm287 -320c42,-44 85,-88 129,-132 44,-44 88,-87 132,-129 -83,5 -163,11 -242,19 -8,79 -14,159 -19,242zm343 -338c79,-73 159,-143 238,-210 -159,-127 -314,-237 -461,-329 -39,169 -71,357 -93,559 103,-9 208,-15 316,-20zm297 -259c171,-141 338,-264 498,-368 -119,-457 -298,-747 -498,-747 -200,0 -379,290 -498,747 160,104 327,227 498,368zm1344 478c-104,160 -227,327 -368,498 141,171 264,338 368,498 457,-119 747,-298 747,-498 0,-200 -290,-379 -747,-498zm-417 557c-67,79 -137,159 -210,238 -5,108 -11,213 -20,316 202,-22 390,-54 558,-93 -91,-147 -201,-302 -328,-461zm-287 320c-42,44 -85,88 -129,132 -44,44 -88,87 -132,129 83,-5 163,-11 242,-19 8,-79 14,-159 19,-242zm-343 338c-79,73 -159,143 -238,210 159,127 314,237 461,329 39,-169 71,-357 93,-559 -103,9 -208,15 -316,20zm-297 259c-171,141 -338,264 -498,368 119,457 298,747 498,747 200,0 379,-290 498,-747 -160,-104 -327,-227 -498,-368zm-1256 -456c92,-147 202,-302 329,-461 67,79 137,159 210,238 5,108 11,213 20,316 -202,-22 -390,-54 -559,-93zm378 -520c50,-61 103,-123 158,-184 -2,61 -3,122 -3,184 0,62 1,123 3,184 -55,-61 -108,-123 -158,-184zm233 -267c59,-65 121,-129 185,-193 64,-64 128,-126 193,-185 87,-4 176,-5 267,-5 91,0 180,1 267,5 65,59 129,121 193,185 64,64 126,128 185,193 4,87 5,176 5,267 0,91 -1,180 -5,267 -59,65 -121,129 -185,193 -64,64 -128,126 -193,185 -87,4 -176,5 -267,5 -91,0 -180,-1 -267,-5 -65,-59 -129,-121 -193,-185 -64,-64 -126,-128 -185,-193 -4,-87 -5,-176 -5,-267 0,-91 1,-180 5,-267zm461 -453c61,-55 123,-108 184,-158 61,50 123,103 184,158 -61,-2 -122,-3 -184,-3 -62,0 -123,1 -184,3zm243 -207c159,-127 314,-237 461,-329 39,169 71,357 93,559 -103,-9 -208,-15 -316,-20 -79,-73 -159,-143 -238,-210zm1197 407c-92,147 -202,302 -329,461 -67,-79 -137,-159 -210,-238 -5,-108 -11,-213 -20,-316 202,22 390,54 559,93zm-378 520c-50,61 -103,123 -158,184 2,-61 3,-122 3,-184 0,-62 -1,-123 -3,-184 55,61 108,123 158,184zm-694 720c-61,55 -123,108 -184,158 -61,-50 -123,-103 -184,-158 61,2 122,3 184,3 62,0 123,-1 184,-3zm-243 207c-159,127 -314,237 -461,329 -39,-169 -71,-357 -93,-559 103,9 208,15 316,20 79,73 159,143 238,210zm-1244 -1525c187,-40 393,-71 613,-92 21,-220 52,-426 92,-613 -407,-238 -739,-317 -880,-175 -142,141 -63,473 175,880zm2606 1196c-187,40 -393,71 -613,92 -21,220 -52,426 -92,613 407,238 739,317 880,175 142,-141 63,-473 -175,-880zm-924 -1238c83,5 163,11 242,19 8,79 14,159 19,242 -42,-44 -85,-88 -129,-132 -44,-44 -88,-87 -132,-129zm-758 1280c-83,-5 -163,-11 -242,-19 -8,-79 -14,-159 -19,-242 42,44 85,88 129,132 44,44 88,87 132,129z"/>
 </g>
</svg>
