<?xml version="1.0" encoding="UTF-8"?>
<!DOCTYPE svg PUBLIC "-//W3C//DTD SVG 1.1//EN" "http://www.w3.org/Graphics/SVG/1.1/DTD/svg11.dtd">
<!-- Creator: CorelDRAW X7 -->
<svg xmlns="http://www.w3.org/2000/svg" xml:space="preserve" width="35.3535mm" height="50mm" version="1.1" style="shape-rendering:geometricPrecision; text-rendering:geometricPrecision; image-rendering:optimizeQuality; fill-rule:evenodd; clip-rule:evenodd"
viewBox="0 0 3535 5000"
 xmlns:xlink="http://www.w3.org/1999/xlink">
 <defs>
  <style type="text/css">
   <![CDATA[
    .fil0 {fill:#FEFEFE}
   ]]>
  </style>
 </defs>
 <g id="Слой_x0020_1">
  <metadata id="CorelCorpID_0Corel-Layer"/>
  <path class="fil0" d="M1476 1025c75,0 142,116 184,295 156,-97 285,-132 338,-79 53,54 18,183 -79,339 179,42 295,108 295,183 0,75 -116,142 -295,184 97,156 132,285 79,338 -53,53 -182,18 -338,-79 -42,179 -109,295 -184,295 -75,0 -141,-116 -183,-295 -156,97 -285,132 -339,79 -53,-53 -18,-182 79,-338 -179,-42 -295,-109 -295,-184 0,-75 116,-141 295,-183 -97,-156 -132,-285 -79,-339 54,-53 183,-18 339,79 42,-179 108,-295 183,-295zm190 324c13,60 23,125 30,195 69,7 135,17 194,29 76,-129 101,-234 56,-279 -45,-45 -150,-20 -280,55zm-380 828c-12,-59 -22,-125 -29,-194 -70,-7 -135,-17 -195,-30 -75,130 -100,235 -55,280 45,45 150,20 279,-56zm-237 -256c33,-50 73,-104 117,-158 -44,-54 -84,-107 -117,-158 -145,38 -237,95 -237,158 0,64 92,121 237,158zm133 -177c21,-25 43,-50 67,-75 1,-34 3,-68 6,-101 -64,8 -124,18 -178,30 29,47 65,96 105,146zm91 -101c13,-14 27,-28 41,-42 14,-14 28,-28 42,-41 -26,2 -52,4 -77,6 -2,25 -4,51 -6,77zm109 -107c25,-24 50,-46 75,-67 -50,-40 -99,-76 -146,-105 -12,54 -22,114 -30,178 33,-3 67,-5 101,-6zm94 -83c54,-44 108,-84 159,-117 -38,-145 -95,-237 -159,-237 -63,0 -120,92 -158,237 51,33 104,73 158,117zm427 152c-33,51 -72,104 -117,158 45,54 84,108 117,158 145,-37 237,-94 237,-158 0,-63 -92,-120 -237,-158zm-132 177c-22,25 -44,50 -67,76 -1,34 -3,67 -6,100 64,-7 124,-17 177,-30 -29,-46 -64,-95 -104,-146zm-92 102c-13,14 -26,28 -40,42 -14,14 -28,27 -42,40 26,-1 52,-3 77,-5 2,-25 4,-51 5,-77zm-108 107c-26,23 -51,45 -76,67 51,40 100,75 147,104 12,-53 22,-113 29,-177 -33,2 -66,5 -100,6zm-95 82c-54,45 -107,84 -158,117 38,145 95,237 158,237 64,0 121,-92 159,-237 -51,-33 -105,-72 -159,-117zm-399 -145c29,-46 65,-95 105,-146 21,25 43,50 67,76 1,34 3,67 6,100 -64,-7 -124,-17 -178,-30zm120 -165c16,-19 33,-39 50,-58 0,19 0,39 0,58 0,20 0,39 0,59 -17,-20 -34,-39 -50,-59zm74 -85c19,-20 39,-40 59,-61 21,-20 41,-40 61,-59 28,-1 57,-1 85,-1 29,0 57,0 85,1 21,19 41,39 61,59 21,21 40,41 59,61 1,28 2,57 2,85 0,29 -1,57 -2,85 -19,21 -38,41 -59,61 -20,21 -40,40 -61,59 -28,1 -56,2 -85,2 -28,0 -57,-1 -85,-2 -20,-19 -40,-38 -61,-59 -20,-20 -40,-40 -59,-61 -1,-28 -1,-56 -1,-85 0,-28 0,-57 1,-85zm147 -144c19,-17 39,-34 58,-50 20,16 39,33 59,50 -19,0 -39,0 -59,0 -19,0 -39,0 -58,0zm77 -65c51,-40 100,-76 146,-105 13,54 23,114 30,178 -33,-3 -66,-5 -100,-6 -26,-24 -51,-46 -76,-67zm380 129c-29,47 -64,96 -104,146 -21,-25 -44,-50 -67,-75 -1,-34 -3,-68 -6,-101 64,8 124,18 177,30zm-120 165c-16,20 -32,39 -50,59 1,-20 1,-39 1,-59 0,-19 0,-39 -1,-58 18,19 34,39 50,58zm-220 229c-20,18 -39,34 -59,50 -19,-16 -39,-32 -58,-50 19,1 39,1 58,1 20,0 40,0 59,-1zm-78 66c-50,40 -99,75 -146,104 -12,-53 -22,-113 -29,-177 32,2 66,5 100,6 25,23 50,45 75,67zm-395 -485c60,-12 125,-22 195,-29 7,-70 17,-135 29,-195 -129,-75 -234,-100 -279,-55 -45,45 -20,150 55,279zm828 380c-59,13 -125,23 -194,30 -7,69 -17,135 -30,194 130,76 235,101 280,56 45,-45 20,-150 -56,-280zm-293 -393c26,2 52,4 77,6 2,25 4,51 5,77 -13,-14 -26,-28 -40,-42 -14,-14 -28,-28 -42,-41zm-241 406c-26,-1 -52,-3 -77,-5 -2,-25 -4,-51 -6,-77 13,14 27,28 41,42 14,14 28,27 42,40z"/>
 </g>
</svg>
